<svg width="24" height="10" viewBox="0 0 24 10" fill="none" xmlns="http://www.w3.org/2000/svg">
<path d="M5.91922 5.4082C5.91922 6.63477 5.68875 7.56055 5.22781 8.18555C4.77078 8.80664 4.07351 9.11719 3.13601 9.11719C2.21414 9.11719 1.51883 8.81445 1.05008 8.20898C0.585234 7.59961 0.346952 6.69922 0.335234 5.50781V4.03125C0.335234 2.80469 0.563749 1.88477 1.02078 1.27148C1.48172 0.658203 2.18289 0.351562 3.1243 0.351562C4.05789 0.351562 4.7532 0.650391 5.21023 1.24805C5.67117 1.8457 5.9075 2.74023 5.91922 3.93164V5.4082ZM4.49539 3.81445C4.49539 3.01367 4.38601 2.42773 4.16726 2.05664C3.94851 1.68164 3.60086 1.49414 3.1243 1.49414C2.65945 1.49414 2.31766 1.67188 2.09891 2.02734C1.88016 2.37891 1.76492 2.92969 1.7532 3.67969V5.61328C1.7532 6.41016 1.86453 7.00391 2.08719 7.39453C2.30984 7.78516 2.65945 7.98047 3.13601 7.98047C3.59305 7.98047 3.93094 7.80078 4.14969 7.44141C4.36844 7.07812 4.48367 6.51172 4.49539 5.74219V3.81445ZM8.56539 7.5C8.83102 7.5 9.03609 7.57617 9.18063 7.72852C9.32516 7.87695 9.39742 8.06445 9.39742 8.29102C9.39742 8.51367 9.32516 8.69922 9.18063 8.84766C9.03609 8.99219 8.83102 9.06445 8.56539 9.06445C8.31149 9.06445 8.11031 8.99219 7.96188 8.84766C7.81344 8.70312 7.73922 8.51758 7.73922 8.29102C7.73922 8.06445 7.81149 7.87695 7.95602 7.72852C8.10055 7.57617 8.30367 7.5 8.56539 7.5ZM8.56539 2.52539C8.83102 2.52539 9.03609 2.60156 9.18063 2.75391C9.32516 2.90234 9.39742 3.08984 9.39742 3.31641C9.39742 3.53906 9.32516 3.72461 9.18063 3.87305C9.03609 4.01758 8.83102 4.08984 8.56539 4.08984C8.31149 4.08984 8.11031 4.01758 7.96188 3.87305C7.81344 3.72852 7.73922 3.54297 7.73922 3.31641C7.73922 3.08984 7.81149 2.90234 7.95602 2.75391C8.10055 2.60156 8.30367 2.52539 8.56539 2.52539ZM16.86 9H11.1237V8.02148L13.9655 4.92188C14.3756 4.46484 14.6666 4.08398 14.8385 3.7793C15.0143 3.4707 15.1022 3.16211 15.1022 2.85352C15.1022 2.44727 14.987 2.11914 14.7565 1.86914C14.5299 1.61914 14.2233 1.49414 13.8366 1.49414C13.3756 1.49414 13.0182 1.63477 12.7643 1.91602C12.5104 2.19727 12.3834 2.58203 12.3834 3.07031H10.9596C10.9596 2.55078 11.0768 2.08398 11.3112 1.66992C11.5495 1.25195 11.8873 0.927734 12.3248 0.697266C12.7663 0.466797 13.2741 0.351562 13.8483 0.351562C14.6764 0.351562 15.3288 0.560547 15.8053 0.978516C16.2858 1.39258 16.526 1.9668 16.526 2.70117C16.526 3.12695 16.4049 3.57422 16.1627 4.04297C15.9245 4.50781 15.5319 5.03711 14.985 5.63086L12.8991 7.86328H16.86V9ZM23.7542 2.71875C23.7542 3.13672 23.6468 3.50977 23.432 3.83789C23.2171 4.16211 22.9241 4.41797 22.553 4.60547C22.9984 4.8125 23.3402 5.0957 23.5784 5.45508C23.8206 5.81445 23.9417 6.2207 23.9417 6.67383C23.9417 7.42383 23.6878 8.01953 23.18 8.46094C22.6722 8.89844 21.9964 9.11719 21.1527 9.11719C20.305 9.11719 19.6253 8.89648 19.1136 8.45508C18.6058 8.01367 18.3519 7.41992 18.3519 6.67383C18.3519 6.2168 18.473 5.80664 18.7152 5.44336C18.9573 5.08008 19.2972 4.80078 19.7347 4.60547C19.3675 4.41797 19.0765 4.16211 18.8616 3.83789C18.6507 3.50977 18.5452 3.13672 18.5452 2.71875C18.5452 1.99219 18.7796 1.41602 19.2484 0.990234C19.7171 0.564453 20.3499 0.351562 21.1468 0.351562C21.9476 0.351562 22.5823 0.564453 23.0511 0.990234C23.5198 1.41602 23.7542 1.99219 23.7542 2.71875ZM22.5179 6.60352C22.5179 6.18164 22.3909 5.8418 22.137 5.58398C21.887 5.32227 21.555 5.19141 21.1409 5.19141C20.7269 5.19141 20.3948 5.32031 20.1448 5.57812C19.8988 5.83594 19.7757 6.17773 19.7757 6.60352C19.7757 7.02148 19.8968 7.35547 20.139 7.60547C20.3851 7.85547 20.723 7.98047 21.1527 7.98047C21.5823 7.98047 21.9163 7.85938 22.1546 7.61719C22.3968 7.375 22.5179 7.03711 22.5179 6.60352ZM22.3363 2.77148C22.3363 2.40039 22.2288 2.0957 22.014 1.85742C21.7991 1.61523 21.5101 1.49414 21.1468 1.49414C20.7835 1.49414 20.4964 1.60938 20.2855 1.83984C20.0745 2.06641 19.9691 2.37695 19.9691 2.77148C19.9691 3.16211 20.0745 3.47266 20.2855 3.70312C20.5003 3.93359 20.7894 4.04883 21.1527 4.04883C21.5159 4.04883 21.803 3.93359 22.014 3.70312C22.2288 3.47266 22.3363 3.16211 22.3363 2.77148Z" fill="white"/>
</svg>
