<svg width="15" height="15" fill="none" xmlns="http://www.w3.org/2000/svg"><path d="M12.627 8.942c-.327-.34-.722-.521-1.14-.521-.416 0-.814.178-1.155.517L9.265 9.997c-.087-.047-.175-.091-.26-.135a4.295 4.295 0 01-.334-.178c-.999-.632-1.907-1.455-2.777-2.52-.422-.53-.706-.978-.912-1.431.277-.252.534-.515.783-.767l.284-.285c.709-.706.709-1.62 0-2.325l-.922-.918a14.02 14.02 0 01-.314-.32A15.9 15.9 0 004.18.495C3.852.171 3.46 0 3.049 0c-.413 0-.81.171-1.148.494l-.007.007L.746 1.653c-.432.43-.678.955-.732 1.563-.081.98.21 1.895.432 2.493.547 1.468 1.364 2.83 2.582 4.288a15.874 15.874 0 005.289 4.123c.776.366 1.813.8 2.97.873.071.004.145.007.213.007.78 0 1.434-.279 1.947-.833.004-.007.01-.01.014-.017.175-.212.378-.403.59-.608.146-.138.294-.283.44-.434.334-.346.509-.75.509-1.162 0-.417-.179-.817-.52-1.153l-1.853-1.851zm1.208 3.538c-.003 0-.003.003 0 0-.131.141-.266.269-.411.41-.22.208-.442.426-.652.672-.34.363-.742.534-1.269.534-.05 0-.104 0-.155-.003-1.003-.064-1.934-.454-2.633-.787a14.984 14.984 0 01-4.982-3.884c-1.15-1.381-1.92-2.658-2.43-4.029C.99 4.556.875 3.905.925 3.29a1.54 1.54 0 01.466-.998l1.151-1.146c.165-.155.34-.239.513-.239.213 0 .385.128.493.235l.01.01c.206.192.402.39.607.602l.321.326.922.917c.357.356.357.686 0 1.042-.098.097-.193.195-.29.289a17.58 17.58 0 01-.848.82c-.007.007-.013.01-.017.017-.29.289-.236.57-.175.762l.01.03c.24.579.577 1.123 1.09 1.772l.003.003c.932 1.142 1.914 2.033 2.998 2.715.138.087.28.158.415.225.121.06.236.118.334.178l.04.024a.735.735 0 00.335.084c.28 0 .455-.175.513-.232l1.154-1.15c.115-.114.297-.251.51-.251.209 0 .381.13.486.245l.006.007 1.86 1.851c.348.343.348.696.003 1.052zM8.095 3.624c.83.141 1.583.54 2.185 1.151.601.611.99 1.377 1.133 2.22.035.212.216.36.421.36.026 0 .048-.004.073-.007a.434.434 0 00.352-.501 4.988 4.988 0 00-1.371-2.686A4.857 4.857 0 008.244 2.77a.43.43 0 00-.494.353.429.429 0 00.345.502zM14.972 6.722A8.205 8.205 0 0012.714 2.3 7.992 7.992 0 008.361.007a.427.427 0 00-.49.353.436.436 0 00.351.502 7.156 7.156 0 013.891 2.049 7.326 7.326 0 012.017 3.952c.034.213.215.36.42.36.026 0 .048-.003.073-.006a.425.425 0 00.349-.495z" fill="#949494"/></svg>