<svg width="16" height="18" fill="none" xmlns="http://www.w3.org/2000/svg"><path d="M7.932 9.699h.124c1.142-.019 2.065-.403 2.747-1.137 1.5-1.618 1.25-4.39 1.223-4.656-.098-1.986-1.08-2.937-1.89-3.38C9.534.194 8.829.015 8.041 0h-.066c-.433 0-1.282.067-2.096.51-.818.444-1.815 1.395-1.913 3.396-.027.265-.276 3.038 1.224 4.656.677.734 1.6 1.118 2.742 1.137zm-2.926-5.7c0-.01.004-.022.004-.03C5.14 1.298 7.122 1.01 7.97 1.01h.048c1.051.023 2.84.433 2.96 2.96 0 .011 0 .022.004.03.004.026.276 2.56-.962 3.895-.491.53-1.146.79-2.006.798h-.04c-.856-.008-1.515-.269-2.001-.798C4.738 6.568 5.003 4.022 5.006 4z" fill="#949494"/><path d="M15.999 14.299v-.011c0-.03-.004-.06-.004-.094-.023-.738-.074-2.464-1.764-3.015l-.04-.011c-1.756-.43-3.217-1.398-3.233-1.41a.54.54 0 00-.732.124.49.49 0 00.129.7c.066.045 1.616 1.078 3.556 1.555.908.31 1.009 1.237 1.036 2.087 0 .034 0 .063.004.093.004.336-.02.854-.082 1.152-.63.343-3.104 1.528-6.867 1.528-3.747 0-6.236-1.189-6.871-1.532-.063-.298-.09-.816-.082-1.151 0-.03.004-.06.004-.094.027-.85.128-1.778 1.036-2.087 1.94-.477 3.49-1.513 3.556-1.554a.489.489 0 00.129-.701.54.54 0 00-.732-.123c-.016.011-1.469.98-3.234 1.409l-.038.011C.079 11.73.028 13.456.005 14.191c0 .033 0 .063-.004.093v.011c-.004.194-.008 1.189.199 1.688.039.097.109.18.202.235C.52 16.293 3.32 18 8.006 18s7.486-1.71 7.603-1.782a.504.504 0 00.203-.235c.195-.495.19-1.49.187-1.684z" fill="#949494"/></svg>